<?xml version='1.0' encoding='UTF-8'?>
<svg width="23.2mm" height="23.2mm" version="1.1" viewBox="0 0 23.2 23.2" xmlns="http://www.w3.org/2000/svg"><path d="M1.6,1.6H2.4V2.4H1.6zM2.4,1.6H3.2V2.4H2.4zM3.2,1.6H4V2.4H3.2zM4,1.6H4.8V2.4H4zM4.8,1.6H5.6V2.4H4.8zM5.6,1.6H6.4V2.4H5.6zM6.4,1.6H7.2V2.4H6.4zM8.8,1.6H9.6V2.4H8.8zM9.6,1.6H10.4V2.4H9.6zM10.4,1.6H11.2V2.4H10.4zM12,1.6H12.8V2.4H12zM14.4,1.6H15.2V2.4H14.4zM16,1.6H16.8V2.4H16zM16.8,1.6H17.6V2.4H16.8zM17.6,1.6H18.4V2.4H17.6zM18.4,1.6H19.2V2.4H18.4zM19.2,1.6H20V2.4H19.2zM20,1.6H20.8V2.4H20zM20.8,1.6H21.6V2.4H20.8zM1.6,2.4H2.4V3.2H1.6zM6.4,2.4H7.2V3.2H6.4zM8,2.4H8.8V3.2H8zM8.8,2.4H9.6V3.2H8.8zM10.4,2.4H11.2V3.2H10.4zM12.8,2.4H13.6V3.2H12.8zM16,2.4H16.8V3.2H16zM20.8,2.4H21.6V3.2H20.8zM1.6,3.2H2.4V4H1.6zM3.2,3.2H4V4H3.2zM4,3.2H4.8V4H4zM4.8,3.2H5.6V4H4.8zM6.4,3.2H7.2V4H6.4zM8,3.2H8.8V4H8zM8.8,3.2H9.6V4H8.8zM9.6,3.2H10.4V4H9.6zM12.8,3.2H13.6V4H12.8zM16,3.2H16.8V4H16zM17.6,3.2H18.4V4H17.6zM18.4,3.2H19.2V4H18.4zM19.2,3.2H20V4H19.2zM20.8,3.2H21.6V4H20.8zM1.6,4H2.4V4.8H1.6zM3.2,4H4V4.8H3.2zM4,4H4.8V4.8H4zM4.8,4H5.6V4.8H4.8zM6.4,4H7.2V4.8H6.4zM8,4H8.8V4.8H8zM9.6,4H10.4V4.8H9.6zM10.4,4H11.2V4.8H10.4zM11.2,4H12V4.8H11.2zM12,4H12.8V4.8H12zM12.8,4H13.6V4.8H12.8zM16,4H16.8V4.8H16zM17.6,4H18.4V4.8H17.6zM18.4,4H19.2V4.8H18.4zM19.2,4H20V4.8H19.2zM20.8,4H21.6V4.8H20.8zM1.6,4.8H2.4V5.6H1.6zM3.2,4.8H4V5.6H3.2zM4,4.8H4.8V5.6H4zM4.8,4.8H5.6V5.6H4.8zM6.4,4.8H7.2V5.6H6.4zM8.8,4.8H9.6V5.6H8.8zM9.6,4.8H10.4V5.6H9.6zM10.4,4.8H11.2V5.6H10.4zM12.8,4.8H13.6V5.6H12.8zM16,4.8H16.8V5.6H16zM17.6,4.8H18.4V5.6H17.6zM18.4,4.8H19.2V5.6H18.4zM19.2,4.8H20V5.6H19.2zM20.8,4.8H21.6V5.6H20.8zM1.6,5.6H2.4V6.4H1.6zM6.4,5.6H7.2V6.4H6.4zM8.8,5.6H9.6V6.4H8.8zM10.4,5.6H11.2V6.4H10.4zM11.2,5.6H12V6.4H11.2zM12.8,5.6H13.6V6.4H12.8zM14.4,5.6H15.2V6.4H14.4zM16,5.6H16.8V6.4H16zM20.8,5.6H21.6V6.4H20.8zM1.6,6.4H2.4V7.2H1.6zM2.4,6.4H3.2V7.2H2.4zM3.2,6.4H4V7.2H3.2zM4,6.4H4.8V7.2H4zM4.8,6.4H5.6V7.2H4.8zM5.6,6.4H6.4V7.2H5.6zM6.4,6.4H7.2V7.2H6.4zM8,6.4H8.8V7.2H8zM9.6,6.4H10.4V7.2H9.6zM11.2,6.4H12V7.2H11.2zM12.8,6.4H13.6V7.2H12.8zM14.4,6.4H15.2V7.2H14.4zM16,6.4H16.8V7.2H16zM16.8,6.4H17.6V7.2H16.8zM17.6,6.4H18.4V7.2H17.6zM18.4,6.4H19.2V7.2H18.4zM19.2,6.4H20V7.2H19.2zM20,6.4H20.8V7.2H20zM20.8,6.4H21.6V7.2H20.8zM8,7.2H8.8V8H8zM11.2,7.2H12V8H11.2zM12.8,7.2H13.6V8H12.8zM13.6,7.2H14.4V8H13.6zM14.4,7.2H15.2V8H14.4zM1.6,8H2.4V8.8H1.6zM6.4,8H7.2V8.8H6.4zM8,8H8.8V8.8H8zM9.6,8H10.4V8.8H9.6zM12,8H12.8V8.8H12zM13.6,8H14.4V8.8H13.6zM14.4,8H15.2V8.8H14.4zM15.2,8H16V8.8H15.2zM16,8H16.8V8.8H16zM18.4,8H19.2V8.8H18.4zM19.2,8H20V8.8H19.2zM20,8H20.8V8.8H20zM1.6,8.8H2.4V9.6H1.6zM4,8.8H4.8V9.6H4zM4.8,8.8H5.6V9.6H4.8zM7.2,8.8H8V9.6H7.2zM8,8.8H8.8V9.6H8zM10.4,8.8H11.2V9.6H10.4zM11.2,8.8H12V9.6H11.2zM13.6,8.8H14.4V9.6H13.6zM14.4,8.8H15.2V9.6H14.4zM16.8,8.8H17.6V9.6H16.8zM17.6,8.8H18.4V9.6H17.6zM18.4,8.8H19.2V9.6H18.4zM19.2,8.8H20V9.6H19.2zM20,8.8H20.8V9.6H20zM2.4,9.6H3.2V10.4H2.4zM5.6,9.6H6.4V10.4H5.6zM6.4,9.6H7.2V10.4H6.4zM8,9.6H8.8V10.4H8zM8.8,9.6H9.6V10.4H8.8zM9.6,9.6H10.4V10.4H9.6zM12.8,9.6H13.6V10.4H12.8zM13.6,9.6H14.4V10.4H13.6zM14.4,9.6H15.2V10.4H14.4zM16,9.6H16.8V10.4H16zM16.8,9.6H17.6V10.4H16.8zM17.6,9.6H18.4V10.4H17.6zM18.4,9.6H19.2V10.4H18.4zM20,9.6H20.8V10.4H20zM20.8,9.6H21.6V10.4H20.8zM1.6,10.4H2.4V11.2H1.6zM4,10.4H4.8V11.2H4zM5.6,10.4H6.4V11.2H5.6zM8,10.4H8.8V11.2H8zM8.8,10.4H9.6V11.2H8.8zM10.4,10.4H11.2V11.2H10.4zM11.2,10.4H12V11.2H11.2zM12.8,10.4H13.6V11.2H12.8zM15.2,10.4H16V11.2H15.2zM16,10.4H16.8V11.2H16zM16.8,10.4H17.6V11.2H16.8zM18.4,10.4H19.2V11.2H18.4zM20.8,10.4H21.6V11.2H20.8zM1.6,11.2H2.4V12H1.6zM4,11.2H4.8V12H4zM6.4,11.2H7.2V12H6.4zM8,11.2H8.8V12H8zM10.4,11.2H11.2V12H10.4zM11.2,11.2H12V12H11.2zM12.8,11.2H13.6V12H12.8zM15.2,11.2H16V12H15.2zM16,11.2H16.8V12H16zM20.8,11.2H21.6V12H20.8zM1.6,12H2.4V12.8H1.6zM8,12H8.8V12.8H8zM8.8,12H9.6V12.8H8.8zM11.2,12H12V12.8H11.2zM12.8,12H13.6V12.8H12.8zM13.6,12H14.4V12.8H13.6zM16.8,12H17.6V12.8H16.8zM20,12H20.8V12.8H20zM1.6,12.8H2.4V13.6H1.6zM5.6,12.8H6.4V13.6H5.6zM6.4,12.8H7.2V13.6H6.4zM8,12.8H8.8V13.6H8zM13.6,12.8H14.4V13.6H13.6zM14.4,12.8H15.2V13.6H14.4zM15.2,12.8H16V13.6H15.2zM16.8,12.8H17.6V13.6H16.8zM17.6,12.8H18.4V13.6H17.6zM18.4,12.8H19.2V13.6H18.4zM20,12.8H20.8V13.6H20zM20.8,12.8H21.6V13.6H20.8zM1.6,13.6H2.4V14.4H1.6zM3.2,13.6H4V14.4H3.2zM4,13.6H4.8V14.4H4zM4.8,13.6H5.6V14.4H4.8zM5.6,13.6H6.4V14.4H5.6zM7.2,13.6H8V14.4H7.2zM8,13.6H8.8V14.4H8zM8.8,13.6H9.6V14.4H8.8zM10.4,13.6H11.2V14.4H10.4zM11.2,13.6H12V14.4H11.2zM13.6,13.6H14.4V14.4H13.6zM16.8,13.6H17.6V14.4H16.8zM18.4,13.6H19.2V14.4H18.4zM19.2,13.6H20V14.4H19.2zM20.8,13.6H21.6V14.4H20.8zM1.6,14.4H2.4V15.2H1.6zM4,14.4H4.8V15.2H4zM5.6,14.4H6.4V15.2H5.6zM6.4,14.4H7.2V15.2H6.4zM7.2,14.4H8V15.2H7.2zM9.6,14.4H10.4V15.2H9.6zM12,14.4H12.8V15.2H12zM14.4,14.4H15.2V15.2H14.4zM15.2,14.4H16V15.2H15.2zM16,14.4H16.8V15.2H16zM16.8,14.4H17.6V15.2H16.8zM17.6,14.4H18.4V15.2H17.6zM19.2,14.4H20V15.2H19.2zM8,15.2H8.8V16H8zM8.8,15.2H9.6V16H8.8zM9.6,15.2H10.4V16H9.6zM10.4,15.2H11.2V16H10.4zM11.2,15.2H12V16H11.2zM12.8,15.2H13.6V16H12.8zM14.4,15.2H15.2V16H14.4zM17.6,15.2H18.4V16H17.6zM1.6,16H2.4V16.8H1.6zM2.4,16H3.2V16.8H2.4zM3.2,16H4V16.8H3.2zM4,16H4.8V16.8H4zM4.8,16H5.6V16.8H4.8zM5.6,16H6.4V16.8H5.6zM6.4,16H7.2V16.8H6.4zM9.6,16H10.4V16.8H9.6zM10.4,16H11.2V16.8H10.4zM14.4,16H15.2V16.8H14.4zM16,16H16.8V16.8H16zM17.6,16H18.4V16.8H17.6zM20.8,16H21.6V16.8H20.8zM1.6,16.8H2.4V17.6H1.6zM6.4,16.8H7.2V17.6H6.4zM8.8,16.8H9.6V17.6H8.8zM9.6,16.8H10.4V17.6H9.6zM12.8,16.8H13.6V17.6H12.8zM14.4,16.8H15.2V17.6H14.4zM17.6,16.8H18.4V17.6H17.6zM1.6,17.6H2.4V18.4H1.6zM3.2,17.6H4V18.4H3.2zM4,17.6H4.8V18.4H4zM4.8,17.6H5.6V18.4H4.8zM6.4,17.6H7.2V18.4H6.4zM9.6,17.6H10.4V18.4H9.6zM12,17.6H12.8V18.4H12zM13.6,17.6H14.4V18.4H13.6zM14.4,17.6H15.2V18.4H14.4zM15.2,17.6H16V18.4H15.2zM16,17.6H16.8V18.4H16zM16.8,17.6H17.6V18.4H16.8zM17.6,17.6H18.4V18.4H17.6zM19.2,17.6H20V18.4H19.2zM1.6,18.4H2.4V19.2H1.6zM3.2,18.4H4V19.2H3.2zM4,18.4H4.8V19.2H4zM4.8,18.4H5.6V19.2H4.8zM6.4,18.4H7.2V19.2H6.4zM8.8,18.4H9.6V19.2H8.8zM10.4,18.4H11.2V19.2H10.4zM11.2,18.4H12V19.2H11.2zM13.6,18.4H14.4V19.2H13.6zM14.4,18.4H15.2V19.2H14.4zM15.2,18.4H16V19.2H15.2zM16,18.4H16.8V19.2H16zM20,18.4H20.8V19.2H20zM20.8,18.4H21.6V19.2H20.8zM1.6,19.2H2.4V20H1.6zM3.2,19.2H4V20H3.2zM4,19.2H4.8V20H4zM4.8,19.2H5.6V20H4.8zM6.4,19.2H7.2V20H6.4zM12.8,19.2H13.6V20H12.8zM18.4,19.2H19.2V20H18.4zM19.2,19.2H20V20H19.2zM20.8,19.2H21.6V20H20.8zM1.6,20H2.4V20.8H1.6zM6.4,20H7.2V20.8H6.4zM8.8,20H9.6V20.8H8.8zM12.8,20H13.6V20.8H12.8zM14.4,20H15.2V20.8H14.4zM15.2,20H16V20.8H15.2zM16.8,20H17.6V20.8H16.8zM17.6,20H18.4V20.8H17.6zM20.8,20H21.6V20.8H20.8zM1.6,20.8H2.4V21.6H1.6zM2.4,20.8H3.2V21.6H2.4zM3.2,20.8H4V21.6H3.2zM4,20.8H4.8V21.6H4zM4.8,20.8H5.6V21.6H4.8zM5.6,20.8H6.4V21.6H5.6zM6.4,20.8H7.2V21.6H6.4zM8,20.8H8.8V21.6H8zM9.6,20.8H10.4V21.6H9.6zM10.4,20.8H11.2V21.6H10.4zM12.8,20.8H13.6V21.6H12.8zM14.4,20.8H15.2V21.6H14.4zM16,20.8H16.8V21.6H16zM18.4,20.8H19.2V21.6H18.4zM20.8,20.8H21.6V21.6H20.8z" id="qr-path" fill="#000000" fill-opacity="1" fill-rule="nonzero" stroke="none"/></svg>